<?xml version="1.0" standalone="no"?>
<!DOCTYPE svg PUBLIC "-//W3C//DTD SVG 20010904//EN"
 "http://www.w3.org/TR/2001/REC-SVG-20010904/DTD/svg10.dtd">
<svg version="1.0" xmlns="http://www.w3.org/2000/svg"
 width="700.000000pt" height="700.000000pt" viewBox="0 0 700.000000 700.000000"
 preserveAspectRatio="xMidYMid meet">
<metadata>
Created by potrace 1.11, written by Peter Selinger 2001-2013
</metadata>
<g transform="translate(0.000000,700.000000) scale(0.100000,-0.100000)"
fill="#000000" stroke="none">
<path d="M3308 6815 c-2 -1 -46 -5 -98 -9 -141 -9 -263 -25 -390 -51 -14 -3
-38 -8 -55 -11 -118 -20 -379 -98 -519 -154 -335 -133 -613 -297 -921 -545
-67 -53 -361 -347 -410 -410 -22 -27 -43 -52 -46 -55 -24 -22 -249 -341 -249
-354 0 -2 -18 -34 -41 -71 -145 -239 -311 -663 -365 -930 -20 -99 -44 -240
-50 -285 -3 -30 -8 -66 -10 -80 -22 -136 -22 -600 0 -730 3 -14 12 -73 20
-132 90 -620 381 -1235 811 -1713 63 -71 215 -222 265 -265 186 -160 289 -235
489 -359 80 -49 346 -185 441 -225 90 -38 268 -98 385 -131 104 -29 163 -42
310 -70 36 -7 135 -22 190 -29 210 -27 759 -28 915 -1 14 2 42 6 63 9 20 3 54
9 75 12 279 43 613 148 892 281 856 409 1495 1167 1758 2083 39 137 84 347 97
455 3 28 8 66 10 85 24 184 24 566 0 750 -16 120 -28 196 -46 280 -12 52 -23
105 -25 117 -2 12 -20 77 -40 145 -285 982 -1007 1779 -1955 2159 -155 62
-434 144 -594 175 -22 4 -44 8 -50 10 -5 1 -30 5 -55 9 -25 3 -56 8 -70 10
-14 2 -50 7 -80 10 -30 4 -73 9 -95 11 -43 5 -552 13 -557 9z m2353 -1649
c147 -31 260 -90 385 -202 76 -69 181 -244 206 -344 5 -19 11 -44 14 -55 4
-11 8 -72 10 -136 6 -225 -65 -408 -221 -565 -359 -361 -956 -284 -1215 156
-143 242 -140 540 6 790 40 68 138 176 196 215 23 17 45 33 48 37 9 12 154 78
171 78 8 0 19 3 23 8 30 29 267 40 377 18z m-1316 -25 c174 -44 255 -157 257
-356 1 -80 -1 -97 -48 -380 -19 -115 -37 -221 -39 -235 -2 -14 -11 -68 -20
-120 -21 -124 -22 -128 -40 -245 -9 -55 -18 -111 -20 -125 -2 -14 -9 -54 -15
-90 -5 -36 -12 -76 -14 -90 -3 -14 -14 -83 -26 -155 -25 -158 -28 -175 -40
-245 -6 -30 -13 -75 -16 -100 -3 -25 -10 -63 -15 -85 -10 -48 -45 -16 361
-335 162 -128 311 -245 330 -260 19 -15 105 -83 190 -150 85 -66 170 -133 189
-148 323 -253 346 -274 382 -350 34 -69 33 -177 -3 -255 -47 -101 -166 -199
-268 -222 -81 -19 -182 -4 -240 34 -14 9 -33 21 -42 26 -9 6 -124 94 -255 196
-131 102 -305 237 -388 299 -82 63 -231 176 -330 252 -595 456 -558 425 -603
518 -59 125 -65 254 -22 485 5 28 12 73 15 100 4 28 8 57 10 65 2 8 7 35 10
60 6 46 42 276 50 319 2 13 7 45 11 70 4 25 8 55 10 66 6 31 12 66 19 110 6
40 37 240 80 505 12 80 21 147 20 150 -3 4 -1708 5 -1725 1 -3 -1 38 -25 90
-54 117 -65 106 -59 584 -329 215 -122 414 -238 442 -259 130 -95 188 -188
190 -304 2 -92 -26 -172 -118 -339 -39 -72 -83 -153 -98 -181 -15 -27 -55
-101 -89 -163 -33 -62 -61 -114 -61 -116 0 -2 -20 -39 -43 -82 -24 -44 -67
-122 -94 -174 -28 -52 -63 -117 -78 -145 -15 -27 -51 -95 -80 -150 -29 -55
-72 -136 -95 -180 -23 -44 -69 -132 -102 -195 -33 -63 -77 -146 -98 -185 -52
-98 -156 -297 -232 -445 -79 -154 -93 -176 -138 -218 -64 -61 -125 -85 -215
-86 -67 0 -90 5 -140 28 -127 58 -200 179 -199 331 1 140 11 162 422 940 52
99 111 209 130 245 19 36 61 117 95 180 33 63 67 129 77 145 17 29 46 83 140
260 24 44 55 103 70 130 15 28 53 98 84 156 l56 107 -107 59 c-60 33 -126 70
-148 83 -22 12 -173 97 -335 188 -162 91 -356 200 -430 242 -74 42 -155 88
-180 102 -25 14 -94 53 -155 88 -60 34 -135 77 -165 94 -333 187 -370 213
-415 290 -42 72 -57 126 -57 208 0 205 125 373 314 422 74 19 3338 16 3413 -3z
m-3485 -1026 c62 -36 114 -65 115 -65 1 0 44 -25 94 -55 51 -30 94 -55 96 -55
2 0 37 -19 77 -43 40 -24 80 -46 88 -50 8 -4 24 -13 35 -20 11 -7 58 -34 105
-61 47 -27 86 -49 87 -50 1 -1 97 -372 107 -416 2 -8 23 -87 46 -175 23 -88
43 -167 45 -175 2 -8 31 -126 66 -261 l63 -246 -31 -59 c-17 -32 -54 -104 -83
-159 -62 -118 -125 -239 -247 -470 -50 -93 -98 -186 -108 -205 l-19 -35 -8 35
c-10 43 1 -1 -108 415 -51 193 -106 400 -122 460 -16 61 -31 117 -33 125 -5
27 -185 707 -221 837 -14 51 -27 101 -29 110 -3 16 -45 178 -95 368 -10 39
-33 124 -50 190 -17 66 -34 128 -37 138 -4 17 -3 18 25 3 17 -9 81 -45 142
-81z"/>
</g>
</svg>
