<?xml version="1.0" encoding="utf-8"?>
<!-- Generator: Adobe Illustrator 21.1.0, SVG Export Plug-In . SVG Version: 6.00 Build 0)  -->
<svg version="1.1" id="Laag_1" xmlns="http://www.w3.org/2000/svg" xmlns:xlink="http://www.w3.org/1999/xlink" x="0px" y="0px"
	 viewBox="0 0 297.7 67.1" style="enable-background:new 0 0 297.7 67.1;" xml:space="preserve">
<style type="text/css">
	.st0{fill:#FFFFFF;}
	.st1{fill:none;}
	.st2{font-family:'Arial-BoldMT';}
	.st3{font-size:19px;}
	.st4{letter-spacing:3;}
</style>
<path class="st0" d="M286.4,0c-3.7,0-6.7,3-6.7,6.8c0,3.7,3,6.8,6.8,6.8c3.7,0,6.8-3,6.8-6.8C293.2,3,290.1,0,286.4,0 M280.8,5.3
	l1.8,1l0.7,2.6l-1,1.9L280.8,5.3z M290,11.3c-0.7-0.5-2.9-2.2-3.1-2.4c-0.2-0.2-0.2-0.6-0.2-0.8s0.5-3.4,0.5-3.4h-3.5
	c0,0,1.6,0.9,2.1,1.2c0.6,0.3,0.7,0.7,0.4,1.3c-0.3,0.6-1.9,3.6-2.4,4.5c-0.4,0.8-1.7,0.3-1.2-0.9c0.6-1.1,2-3.9,2-3.9
	s-3-1.7-3.7-2.1c-0.7-0.4-0.4-1.6,0.5-1.6h6.4c0.8,0,0.9,0.4,0.8,1.1S288,7.9,288,7.9s2.1,1.6,2.8,2.2
	C291.6,10.8,290.7,11.9,290,11.3 M290.6,6.5c-0.9,0-1.6-0.7-1.6-1.6s0.7-1.6,1.6-1.6s1.6,0.7,1.6,1.6S291.5,6.5,290.6,6.5
	 M54.5,19.7l27.1-15c-7.4,0-18.6,0.4-24.8,0.4L33.4,18.3L35.5,5c-10.7-0.1-9.3-0.1-20.6-0.2c0,0-5.1,32.7-5.2,32.7H31l2.1-16.6
	c9,7,16.2,12.9,20.2,16.6h25.8L58.2,22.6L54.5,19.7z M265.3,4.8H253c-2.5,0-6.5,0.2-12,0.1c-1.7,1.6-5.9,5.7-5.9,5.7l-23.4,22.5
	c0.1-1.6,0.3-3.4,0.5-5.4c0.4-3.7,0.8-6.7,1.1-8.8l0.1-0.8c0,0-18.6-0.9-27.6,0.4l-0.6,5.8c0,0,9.8,0.3,11.8,0.4l-0.6,5.3
	c-3.3,0.4-9.7,1-12.5,1c-3.4,0-6.4-0.3-9.2-1c-2.7-0.7-4.7-1.6-6-2.9s-1.9-2.7-1.9-4.4c0-1.6,0.5-3.1,1.7-4.6c1.1-1.4,2.8-2.7,5-3.7
	s4.9-1.8,7.9-2.3c3.1-0.5,6.3-0.8,9.8-0.8c1.3,0,2.8,0,4.5,0.1c4.6,0.2,10.1,0.6,18.5,1.5l0.2-5C206,6.1,194.9,4.1,188,4.1
	c-9.4,0-17.1,0.8-23,2.4s-10.5,3.8-13.7,6.6c-1.7,1.5-2.9,3-3.7,4.6c-0.4-1.5-1.1-2.8-2.2-4.1c-1.7-2-4.3-3.7-7.8-5.2
	s-7.5-2.6-12.2-3.3c-4.6-0.7-9.5-1-14.5-1C103.1,4.3,96,5,89.7,6.5c-6.2,1.5-11,3.5-14.1,6.2c-3.2,2.6-4.8,5.7-4.8,9.2
	c0,2.4,0.8,4.5,2.3,6.5c1.5,1.9,4.1,3.7,7.7,5.3c3.6,1.6,7.8,2.7,12.7,3.4c4.9,0.7,9.9,1.1,15.3,1.1s10.5-0.4,15.5-1.1
	c5-0.7,9.2-1.9,12.8-3.4c3.6-1.6,6.3-3.5,8.2-5.7c0.8-0.9,1.4-1.9,1.8-2.8c0.3,1,0.7,1.9,1.4,2.9c1.2,1.8,2.9,3.4,5,4.8
	c2.2,1.3,4.9,2.4,8.1,3.2c3.2,0.8,6.9,1.3,11,1.7c4.1,0.3,8.3,0.5,12.6,0.5c2.6,0,5.6-0.1,8.9-0.2c3.3-0.1,7.7-0.3,10-0.4
	c1.5-0.1,1.9-0.1,4-0.1h21.2c2.9-3.4,5.7-6.5,8.5-9.3h23.7c2.6,3.6,4.6,6.7,6,9.3H289L265.3,4.8z M130.8,21.5
	c-1,5.4-10.2,9.5-21.3,9.5h-1.3c-8-0.2-14.7-2.6-17.6-6.2c-1.2-1.5-1.6-3.1-1.3-4.7c1-5.4,10.2-9.5,21.3-9.5h1.3
	c8,0.2,14.7,2.6,17.6,6.2C130.6,18.3,131.1,19.9,130.8,21.5z M243.3,21.2l3.4-3.5c1.4-1.5,3.4-3.7,5.5-6.1c0.3,0.6,2.1,4,5.8,9.6
	H243.3z"/>
<rect x="-43.9" y="45.4" class="st1" width="384.8" height="51.3"/>
<text transform="matrix(1 0 0 1 7.6931 58.97)" class="st0 st2 st3 st4">CENTER COPENHAGEN</text>
</svg>
