<svg id="Laag_1" data-name="Laag 1" xmlns="http://www.w3.org/2000/svg" viewBox="0 0 297.74 67.14"><defs><style>.cls-1{font-size:19px;font-family:Arial-BoldMT, Arial;font-weight:700;letter-spacing:0.2em;}</style></defs><title>koga_logo_black</title><path d="M286.39,0a6.72,6.72,0,0,0-6.7,6.8,6.8,6.8,0,1,0,13.6,0,7,7,0,0,0-6.9-6.8m-5.6,5.3,1.8,1,.7,2.6-1,1.9Zm9.2,6c-.7-.5-2.9-2.2-3.1-2.4a1.2,1.2,0,0,1-.2-.8c0-.2.5-3.4.5-3.4h-3.5s1.6.9,2.1,1.2.7.7.4,1.3-1.9,3.6-2.4,4.5-1.7.3-1.2-.9,2-3.9,2-3.9l-3.7-2.1a.88.88,0,0,1,.5-1.6h6.4c.8,0,.9.4.8,1.1s-.6,3.6-.6,3.6,2.1,1.6,2.8,2.2-.1,1.8-.8,1.2m.6-4.8a1.6,1.6,0,1,1,1.6-1.6,1.58,1.58,0,0,1-1.6,1.6M54.49,19.7l27.1-15c-7.4,0-18.6.4-24.8.4L33.39,18.3,35.49,5l-20.6-.2s-5.1,32.7-5.2,32.7H31l2.1-16.6c9,7,16.2,12.9,20.2,16.6h25.8L58.19,22.6ZM265.29,4.8H253c-2.5,0-6.5.2-12,.1-1.7,1.6-5.9,5.7-5.9,5.7l-23.4,22.5c.1-1.6.3-3.4.5-5.4.4-3.7.8-6.7,1.1-8.8l.1-.8s-18.6-.9-27.6.4l-.6,5.8s9.8.3,11.8.4l-.6,5.3c-3.3.4-9.7,1-12.5,1a37.6,37.6,0,0,1-9.2-1,12.94,12.94,0,0,1-6-2.9,5.91,5.91,0,0,1-1.9-4.4,7.11,7.11,0,0,1,1.7-4.6,13.32,13.32,0,0,1,5-3.7,32.1,32.1,0,0,1,7.9-2.3,60.76,60.76,0,0,1,9.8-.8c1.3,0,2.8,0,4.5.1,4.6.2,10.1.6,18.5,1.5l.2-5C206,6.1,194.89,4.1,188,4.1c-9.4,0-17.1.8-23,2.4s-10.5,3.8-13.7,6.6a15.29,15.29,0,0,0-3.7,4.6,10.27,10.27,0,0,0-2.2-4.1,20.78,20.78,0,0,0-7.8-5.2,49.1,49.1,0,0,0-12.2-3.3,97.12,97.12,0,0,0-14.5-1,103.94,103.94,0,0,0-21.2,2.4c-6.2,1.5-11,3.5-14.1,6.2s-4.8,5.7-4.8,9.2a10.53,10.53,0,0,0,2.3,6.5c1.5,1.9,4.1,3.7,7.7,5.3a47.86,47.86,0,0,0,12.7,3.4,106.94,106.94,0,0,0,15.3,1.1,110.88,110.88,0,0,0,15.5-1.1,51.62,51.62,0,0,0,12.8-3.4,22.86,22.86,0,0,0,8.2-5.7,11,11,0,0,0,1.8-2.8,9.65,9.65,0,0,0,1.4,2.9,17.7,17.7,0,0,0,5,4.8,30.4,30.4,0,0,0,8.1,3.2,77.37,77.37,0,0,0,11,1.7c4.1.3,8.3.5,12.6.5,2.6,0,5.6-.1,8.9-.2s7.7-.3,10-.4c1.5-.1,1.9-.1,4-.1h21.2c2.9-3.4,5.7-6.5,8.5-9.3h23.7a86.77,86.77,0,0,1,6,9.3H289ZM130.79,21.5c-1,5.4-10.2,9.5-21.3,9.5h-1.3c-8-.2-14.7-2.6-17.6-6.2a5.65,5.65,0,0,1-1.3-4.7c1-5.4,10.2-9.5,21.3-9.5h1.3c8,.2,14.7,2.6,17.6,6.2A6,6,0,0,1,130.79,21.5Zm112.5-.3,3.4-3.5c1.4-1.5,3.4-3.7,5.5-6.1a108.24,108.24,0,0,0,5.8,9.6Z"/><text class="cls-1" transform="translate(7.69 58.97)">CENTER COPENHAGEN</text></svg>
