<svg id="Layer_1" data-name="Layer 1" xmlns="http://www.w3.org/2000/svg" width="150.78" height="30" viewBox="0 0 150.78 30"><defs><style>.cls-1{fill-rule:evenodd;}</style></defs><title>nyt_logo</title><g id="navn"><path class="cls-1" d="M126.14,9.13,128,7.24c.75-.83,1.88-2,2.94-3.24A59.54,59.54,0,0,0,134,9.2h-7.84Zm-60.81.22c-.53,2.94-5.5,5.13-11.53,5.13h-.68c-4.29-.15-7.91-1.43-9.42-3.39A3.11,3.11,0,0,1,43,8.52c.52-2.93,5.5-5.12,11.52-5.12h.68c4.22.23,7.84,1.51,9.42,3.39A3.14,3.14,0,0,1,65.33,9.35ZM138,.31h-6.63c-1.36,0-3.47.08-6.48.08l-3.09,3.09L109.11,15.61c.08-.91.15-1.81.3-2.87.23-2,.45-3.54.6-4.74V7.47S100,7,95.09,7.7l-.3,3.16,6.41.23L100.9,14c-1.81.23-5.28.53-6.78.53a22.2,22.2,0,0,1-5-.53,6.62,6.62,0,0,1-3.24-1.58A3.09,3.09,0,0,1,84.85,10a3.93,3.93,0,0,1,.9-2.49,7.18,7.18,0,0,1,2.71-2,16.56,16.56,0,0,1,4.3-1.28A31.16,31.16,0,0,1,98,3.85c.68,0,1.51,0,2.41.08,2.49.07,5.43.3,10,.83L110.47,2c-4.52-1-10.55-2-14.24-2A48.64,48.64,0,0,0,83.87,1.29a18.17,18.17,0,0,0-7.39,3.54,7.12,7.12,0,0,0-2,2.49,4.82,4.82,0,0,0-1.2-2.19A12.21,12.21,0,0,0,69.1,2.35,24.7,24.7,0,0,0,62.54.54,70,70,0,0,0,54.63,0a48.09,48.09,0,0,0-11.38,1.2,18.94,18.94,0,0,0-7.68,3.32A6.15,6.15,0,0,0,33,9.5a6.15,6.15,0,0,0,1.21,3.55,10.51,10.51,0,0,0,4.14,2.86,27.39,27.39,0,0,0,6.86,1.88,59.69,59.69,0,0,0,8.21.61,62,62,0,0,0,8.37-.61,24.84,24.84,0,0,0,6.93-1.88,11.6,11.6,0,0,0,4.45-3.09,6.74,6.74,0,0,0,1-1.51,7.32,7.32,0,0,0,.75,1.58,7.43,7.43,0,0,0,2.71,2.57A15.76,15.76,0,0,0,82,17.19a39.3,39.3,0,0,0,6,.9,66.87,66.87,0,0,0,6.78.31c1.43,0,3,0,4.82-.08s4.15-.15,5.43-.23c.83-.07,1,0,2.11-.07h11.45c1.51-1.73,3-3.39,4.6-5h12.81a38.84,38.84,0,0,1,3.24,5h11.6ZM24.19,8.3l14.62-8c-4,0-10,.23-13.42.15L12.81,7.62,13.94.39C8.21.39,9,.39,2.79.31,2.79.31.07,17.94,0,17.94H11.53l1.05-8.89c4.9,3.77,8.74,7,10.93,8.89H37.45L26.22,9.88l-2-1.58Z"/></g><path d="M7.16,26.46l1.28.3A4,4,0,0,1,7,29.1a4,4,0,0,1-2.49.82A4.67,4.67,0,0,1,2,29.32,3.77,3.77,0,0,1,.6,27.51,7.07,7.07,0,0,1,0,25a5.32,5.32,0,0,1,.6-2.56,4.28,4.28,0,0,1,1.58-1.66,4.67,4.67,0,0,1,2.34-.6,3.67,3.67,0,0,1,2.41.75,3.3,3.3,0,0,1,1.36,2l-1.21.3a2.76,2.76,0,0,0-1-1.51,2.79,2.79,0,0,0-1.58-.45,2.71,2.71,0,0,0-1.81.53,3.32,3.32,0,0,0-1,1.43A5,5,0,0,0,1.36,25a6,6,0,0,0,.37,2.11,2.52,2.52,0,0,0,1.13,1.35,3.2,3.2,0,0,0,1.58.45,3,3,0,0,0,1.81-.6A4.85,4.85,0,0,0,7.16,26.46Z"/><path d="M10,29.77V20.28H16.8v1.13H11.23v2.94H16.5v1.13H11.23v3.16H17v1.13Z"/><path d="M18.76,29.77V20.28H20l5,7.46V20.28h1.2v9.49H24.94l-5-7.46v7.46Z"/><path d="M30.74,29.77V21.41H27.65V20.28h7.54v1.13H32v8.36Z"/><path d="M36.47,29.77V20.28h6.86v1.13H37.75v2.94H43v1.13H37.75v3.16h5.8v1.13Z"/><path d="M45.29,29.77V20.28h4.22a6.39,6.39,0,0,1,2,.23,1.79,1.79,0,0,1,1.05.9,3.05,3.05,0,0,1,.38,1.43,2.5,2.5,0,0,1-.68,1.73,3.59,3.59,0,0,1-2,.91,3.16,3.16,0,0,1,.76.45A6.25,6.25,0,0,1,52,27.21l1.66,2.56H52.07l-1.28-2a15.55,15.55,0,0,0-.91-1.28,2.21,2.21,0,0,0-.6-.6.86.86,0,0,0-.6-.23c-.15,0-.38-.07-.68-.07H46.57v4.22H45.29Zm1.28-5.27h2.71a6,6,0,0,0,1.36-.15,1.5,1.5,0,0,0,.75-.6,1.54,1.54,0,0,0,.23-.83,1.49,1.49,0,0,0-.46-1.13,2.07,2.07,0,0,0-1.5-.46h-3V24.5Z"/><path d="M65.33,26.46l1.28.3a3.89,3.89,0,0,1-1.43,2.34,4,4,0,0,1-2.49.82,4.61,4.61,0,0,1-2.48-.6,3.79,3.79,0,0,1-1.44-1.81A7,7,0,0,1,58.25,25a5.32,5.32,0,0,1,.6-2.56,3.79,3.79,0,0,1,1.58-1.66,4.65,4.65,0,0,1,2.34-.6,3.67,3.67,0,0,1,2.41.75,3.3,3.3,0,0,1,1.36,2l-1.21.3a2.45,2.45,0,0,0-2.56-2,2.69,2.69,0,0,0-1.81.53,3.42,3.42,0,0,0-1.06,1.43A5.17,5.17,0,0,0,59.6,25,5.8,5.8,0,0,0,60,27.14a2.52,2.52,0,0,0,1.13,1.35,3.2,3.2,0,0,0,1.58.45,3,3,0,0,0,1.81-.6A6.43,6.43,0,0,0,65.33,26.46Z"/><path d="M67.74,25.18A5.24,5.24,0,0,1,69,21.48a4.28,4.28,0,0,1,3.24-1.35,4.65,4.65,0,0,1,2.34.6,4.4,4.4,0,0,1,1.58,1.73A5.58,5.58,0,0,1,76.71,25a5.68,5.68,0,0,1-.6,2.56,3.76,3.76,0,0,1-1.66,1.73,4.87,4.87,0,0,1-2.34.6,4.49,4.49,0,0,1-2.41-.67,5,5,0,0,1-1.58-1.74A7.44,7.44,0,0,1,67.74,25.18Zm1.28,0a3.9,3.9,0,0,0,.91,2.71,3.27,3.27,0,0,0,4.67,0A4.09,4.09,0,0,0,75.5,25a5.88,5.88,0,0,0-.37-2A2.92,2.92,0,0,0,74,21.64a3.18,3.18,0,0,0-1.66-.46,3,3,0,0,0-2.26.91A3.84,3.84,0,0,0,69,25.18Z"/><path d="M78.44,29.77V20.28H82a8,8,0,0,1,1.44.07,3.37,3.37,0,0,1,1.2.46,2.14,2.14,0,0,1,.75.9A2.45,2.45,0,0,1,85.68,23a2.74,2.74,0,0,1-.76,2,3.88,3.88,0,0,1-2.79.83H79.72V29.7H78.44Zm1.21-5h2.48a2.69,2.69,0,0,0,1.74-.45,1.57,1.57,0,0,0,.52-1.28,1.71,1.71,0,0,0-.3-1.06,1.24,1.24,0,0,0-.83-.53,5,5,0,0,0-1.2-.07H79.65Z"/><path d="M87.26,29.77V20.28h6.86v1.13H88.54v2.94h5.27v1.13H88.54v3.16h5.8v1.13Z"/><path d="M96.07,29.77V20.28h1.29l5,7.46V20.28h1.2v9.49h-1.28l-5-7.46v7.46Z"/><path d="M105.72,29.77V20.28H107V24.2h4.9V20.28h1.28v9.49H111.9V25.33H107v4.44Z"/><path d="M114.23,29.77l3.62-9.49h1.36l3.92,9.49h-1.44l-1.13-2.86h-4l-1,2.86ZM117,25.93h3.24l-1-2.64c-.3-.83-.53-1.43-.68-2a14.91,14.91,0,0,1-.53,1.81Z"/><path d="M128.55,26.08V25h4v3.54a8.43,8.43,0,0,1-1.89,1.13,4.65,4.65,0,0,1-2,.38,5.88,5.88,0,0,1-2.56-.6,3.86,3.86,0,0,1-1.74-1.74,5.65,5.65,0,0,1-.6-2.56,5.91,5.91,0,0,1,.6-2.56A3.92,3.92,0,0,1,126,20.73a5.45,5.45,0,0,1,2.49-.6,5.12,5.12,0,0,1,1.88.3,3.34,3.34,0,0,1,1.28.9,5.13,5.13,0,0,1,.75,1.59l-1.13.3a4.09,4.09,0,0,0-.52-1.13,2.09,2.09,0,0,0-.91-.68,3.51,3.51,0,0,0-1.28-.23,4.61,4.61,0,0,0-1.51.23,1.88,1.88,0,0,0-1,.68,6,6,0,0,0-.61.9,5.39,5.39,0,0,0-.37,1.89,4.43,4.43,0,0,0,.45,2.11,2.65,2.65,0,0,0,1.28,1.28,3.57,3.57,0,0,0,1.81.37,3.89,3.89,0,0,0,1.58-.3,5.48,5.48,0,0,0,1.21-.68V25.93h-2.87Z"/><path d="M134.43,29.77V20.28h6.86v1.13h-5.58v2.94H141v1.13h-5.28v3.16h5.8v1.13Z"/><path d="M143.25,29.77V20.28h1.28l5,7.46V20.28h1.21v9.49h-1.29l-5-7.46v7.46Z"/></svg>
