<svg id="Layer_1" data-name="Layer 1" xmlns="http://www.w3.org/2000/svg" width="172" height="24" viewBox="0 0 172 24">
    <defs>
        <style>
            .cls-1 {
                fill-rule: evenodd;
            }

        </style>
    </defs>
    <title>logo</title>
    <g id="navn">
        <path class="cls-1" d="M142.89,12l2-2.14c.87-.9,2.08-2.25,3.33-3.67.2.35,1.28,2.41,3.48,5.81Zm-68.11.2c-.63,3.26-6.17,5.73-12.89,5.73l-.78,0c-4.82-.14-8.89-1.57-10.62-3.73a3.43,3.43,0,0,1-.79-2.83c.63-3.26,6.17-5.73,12.89-5.73l.78,0c4.82.14,8.89,1.57,10.62,3.73A3.43,3.43,0,0,1,74.78,12.2ZM156.17,2.07c-2.27,0-4.76,0-7.43,0-1.54,0-3.9.11-7.24.09L138,5.65,123.8,19.22c.08-1,.18-2.06.3-3.25.24-2.26.47-4,.69-5.33l0-.49s-11.23-.54-16.71.23l-.37,3.53,7.14.25-.35,3.18c-2,.26-5.89.6-7.58.6a23.57,23.57,0,0,1-5.54-.6,7.56,7.56,0,0,1-3.62-1.77,3.63,3.63,0,0,1-1.15-2.64,4.56,4.56,0,0,1,1-2.77,8,8,0,0,1,3-2.25,18,18,0,0,1,4.81-1.4,37.28,37.28,0,0,1,5.93-.45c.8,0,1.71,0,2.72.07,2.79.12,6.12.33,11.17.93l.1-3c-5.09-1.07-11.8-2.28-16-2.28A54.48,54.48,0,0,0,95.5,3.22a20.78,20.78,0,0,0-8.27,4A9.13,9.13,0,0,0,85,10a6.11,6.11,0,0,0-1.35-2.46,13.32,13.32,0,0,0-4.73-3.15,29.25,29.25,0,0,0-7.37-2,61.42,61.42,0,0,0-8.78-.63A55.44,55.44,0,0,0,50,3.1a20.94,20.94,0,0,0-8.58,3.74,7.05,7.05,0,0,0-2.89,5.55,6.29,6.29,0,0,0,1.37,3.93,11.79,11.79,0,0,0,4.63,3.2,29.53,29.53,0,0,0,7.68,2.08,64.69,64.69,0,0,0,9.23.65,64.36,64.36,0,0,0,9.36-.66,30.12,30.12,0,0,0,7.75-2.08,13.29,13.29,0,0,0,5-3.44,7.44,7.44,0,0,0,1.11-1.72,7.09,7.09,0,0,0,.82,1.75,9.48,9.48,0,0,0,3,2.88,16.66,16.66,0,0,0,4.91,1.92,45,45,0,0,0,6.68,1q3.8.32,7.61.32c1.57,0,3.37,0,5.38-.11s4.63-.15,6.07-.25c.93-.05,1.13,0,2.39-.05,2.86,0,5,0,6.34,0l6.48,0c1.66-1.93,3.36-3.8,5.13-5.63h14.34a45.9,45.9,0,0,1,3.62,5.63l7,0,6,0Zm-127.49,9L45.07,2.06c-4.45,0-11.26.23-15,.21l-14.16,8,1.25-8.08c-6.45,0-5.61,0-12.49-.12,0,0-3.06,19.79-3.12,19.79,3.6,0,12.9,0,12.9,0l1.24-10c5.47,4.25,9.8,7.82,12.24,10l8.18,0,7.42,0-12.61-9-2.24-1.71Z" />
    </g>
</svg>
